<?xml version="1.0" encoding="utf-8"?>
<!-- Generator: Adobe Illustrator 22.1.0, SVG Export Plug-In . SVG Version: 6.00 Build 0)  -->
<svg version="1.1" id="Capa_1" xmlns="http://www.w3.org/2000/svg" xmlns:xlink="http://www.w3.org/1999/xlink" x="0px" y="0px"
	 viewBox="0 0 3476 773.8" style="enable-background:new 0 0 3476 773.8;" xml:space="preserve">
<style type="text/css">
	.st0{fill:#FFC107;stroke:#FFC107;stroke-miterlimit:10;}
	.st1{fill:#FFFFFF;}
</style>
<path d="M36,66.1c72,0,144,0,216-0.1c3.2,0,4.6,1.2,6.1,3.8C322.3,179.4,386.6,289,450.8,398.6c5.5,9.4,11.1,18.9,16.5,28.4
	c0.8,1.5,1.3,4,0.6,5.3c-11.9,20.9-24,41.7-36.3,62.9c-10.4-17.6-20.5-34.9-30.6-52.1C348.3,353.2,295.6,263.3,243,173.4
	c-1.8-3.2-3.9-4.3-7.5-4.3c-21.3,0.2-42.6,0.1-65.6,0.1C256.3,320.3,342,470.4,428.4,621.6c25.6-43.7,50.8-86.7,76.5-130.5
	C548.6,565.7,592,639.6,636,714.8c44-75.1,87.3-148.9,131.1-223.7c25.6,43.7,50.8,86.7,76.5,130.5c86.2-150.9,172-301.1,258.2-452.1
	c-2.7-0.1-4.3-0.3-5.9-0.3c-19.8,0-39.7,0.1-59.5-0.1c-3.6,0-5.7,1.1-7.5,4.2c-42.2,72.2-84.5,144.3-126.8,216.4
	c-20.5,34.9-40.9,69.9-61.7,105.4c-5.7-9.9-11.2-19.4-16.7-28.9c-6.3-10.8-12.4-21.5-18.8-32.2c-1.6-2.7-1.8-4.7-0.1-7.6
	c59.1-100.6,118-201.2,176.9-301.8c10.8-18.5,21.7-36.9,32.4-55.4c1.4-2.5,3.1-3.3,5.9-3.3c72,0.1,144,0.1,216,0.1c0,0.3,0,0.7,0,1
	c-0.7,1.4-1.6,2.7-2.1,4.2c-21.8,64.2-43.7,128.4-65.5,192.7c-50.2,148.2-100.4,296.3-150.5,444.5c-1.4,4.2-3.2,5.7-8,5.7
	C881.5,714,753,714,624.5,714c-120.8,0-241.7,0-362.5,0.1c-4.7,0-6.6-1.5-8-5.7c-19.5-57.9-39.1-115.7-58.7-173.5
	C143.9,382.8,92.4,230.8,40.9,78.7c-1.3-4-3.2-7.8-4.9-11.6C36,66.7,36,66.4,36,66.1z"/>
<path d="M578.8,169.9c5.2,8.9,9.5,17.8,15.3,25.6c6.4,8.5,5.4,15.2,0,24.1c-21.3,35-41.7,70.5-62.5,105.9c-0.7,1.3-1.5,2.5-2.8,4.6
	c-51.6-88.1-102.9-175.5-154.5-263.6c174.6,0,348.6,0,523.4,0C846.2,154.2,795,241.7,743.4,329.7c-1-1.3-1.7-2.1-2.3-3
	c-22.6-38.5-45.1-77-67.7-115.5c-1.6-2.7-1.9-4.7-0.1-7.5c5.9-9.6,11.5-19.4,17.2-29.2c0.8-1.4,1.5-2.8,2.5-4.7
	C654.8,169.9,617.2,169.9,578.8,169.9z"/>
<path class="st0" d="M636.2,269.1c7.4,12.7,14.4,24.5,21.4,36.4c15.7,26.7,31.3,53.4,47,80.1c1.7,2.8,2.3,5.2,0.5,8.3
	c-22.3,37.8-44.5,75.7-66.8,113.6c-0.5,0.8-1.1,1.6-2.2,3.3c-1.8-2.7-3.4-4.8-4.7-7.1c-20.6-35.2-41.1-70.4-62-105.4
	c-3.5-5.9-3.6-10.1,0-16.1c22-36.7,43.4-73.7,65.1-110.5C634.8,271,635.2,270.5,636.2,269.1z"/>
<path d="M1571.4,353.2c-24.3-44.4-47-85.6-71.1-129.6c-24,44.1-46.8,85.9-70.5,129.6c-44.7-81.9-88.6-162.2-132.7-243
	c26.1-4.4,26.2-4.4,37.4,16.1c31.1,56.9,62.1,113.8,94,172.3c2.8-3.4,5.1-5.5,6.5-8.1c15.4-27.8,31-55.4,45.4-83.7
	c2.7-5.2,2.3-14.2-0.4-19.6c-13-26.1-27.3-51.5-41.2-77.2c20.4-6.1,31.9,1,39.1,19.2c5.5,13.7,13.8,26.3,22.1,41.6
	c8.8-15.6,16.7-29.4,24.5-43.4c11.6-20.7,11.6-20.7,38-17.7c-14,25.6-27.2,51.1-41.7,75.9c-5.1,8.7-5.1,15.1-0.2,23.8
	c16.7,29.1,32.6,58.7,50,90.3c3.4-5.1,5.9-8.3,7.8-11.9c28.8-52.7,58.2-105.2,86-158.5c8.7-16.8,18.2-26.3,39.3-18.6
	C1660.5,190.1,1616.7,270.2,1571.4,353.2z"/>
<path d="M2816.7,354.2c0-81.7,0-162.4,0-244.3c74.8,0,149.5,0,225.1,0c0,7.3,0,14.8,0,23.9c-65.4,0-131.3,0-198.3,0
	c0,25.8,0,50.2,0,76.1c53.7,0,107.1,0,161.2,0c0,7.2,0,12.8,0,19.9c-53.3,0-106.8,0-161.2,0c0,34.5,0,67.5,0,102.1
	c66.1,0,132.1,0,198.6,0c0,8.1,0,14.7,0,22.3C2967.4,354.2,2892.8,354.2,2816.7,354.2z"/>
<path d="M3305.8,262.2c34.4,29.6,69.3,59.6,106.2,91.4c-20.1,2.5-34.6,1.8-48.7-12c-25.6-24.9-53.6-47.2-81.1-70
	c-4-3.3-11-4.5-16.5-4.3c-23.1,0.9-46.2,2.7-71.3,4.2c0,26.7,0,54.3,0,82.6c-8.6,0-15.2,0-23.5,0c-0.3-4.4-0.8-9-0.8-13.6
	c-0.1-72,0.3-144.1-0.3-216.1c-0.1-12.9,3.8-16.8,16.3-16.3c48,2,96.4,1.3,141.7,20.6c12.2,5.2,24.3,12.2,34.5,20.6
	c28.9,23.7,28.1,62-2.5,83.6C3343.4,244.4,3324.6,252.2,3305.8,262.2z M3197,250.9c29.4-2.8,57.6-2.9,84.6-8.8
	c22-4.9,44.2-14.1,63.2-26.2c21.1-13.5,19.8-35.8,0.8-52.4c-4.3-3.8-9.2-7.1-14.3-9.8c-42.1-22-87.5-23.6-134.3-22.5
	C3197,170.5,3197,208.4,3197,250.9z"/>
<path d="M2471.6,108.8c63.5-0.2,125.5-1.2,177.7,41.7c56,46.1,53.5,125.8-5.4,168.3c-29.2,21.1-62.3,31.8-98,33.4
	c-24.4,1.1-49,0.2-74.3,0.2C2471.6,271.6,2471.6,191.6,2471.6,108.8z M2496.9,331.5c42.5,2.1,83-1.1,119.9-22.5
	c64.1-37.3,64.6-112.6,1-150.5c-37.1-22.1-78.1-25.3-120.9-23.2C2496.9,200.8,2496.9,265.3,2496.9,331.5z"/>
<path d="M1988.7,233.7c-1,62.4-48.5,120.1-122.2,120.4c-76.1,0.3-122.5-61.4-122.6-121.2c-0.1-60.4,49.4-124.5,122.6-123.8
	C1939,109.8,1987.9,168.6,1988.7,233.7z M1963.6,231.4c-1.6-54.3-46.5-95.7-102.1-93.9c-52,1.7-94.8,46.9-93.2,98.7
	c1.5,51.7,47.5,93.9,101,92.5C1921.8,327.5,1965.1,282.9,1963.6,231.4z"/>
<path d="M2319,292.9c0-60.8,0-121.6,0-183.5c8,0,15,0,23.2,0c0,79.5,0,159.4,0,242c-66.9-60.9-132.6-120.7-201.7-183.5
	c0,64.9,0,125,0,186c-8.7,0-15.6,0-23.9,0c0-79.6,0-159,0-242.1c67.4,62.3,133,122.9,198.6,183.5
	C2316.5,294.5,2317.7,293.7,2319,292.9z"/>
<path class="st1" d="M2998.4,510.5c1.3-0.4,2.6-0.9,3.9-1.3c16.2,30.9,32.5,61.9,49.4,94.2c17.2-33,33.4-64.1,49.6-95.1
	c3.6,5.8,4,10.7,4,15.5c0.1,36,0,72,0.1,108c0,11,0.2,11,10.8,9.9c0-59.2,0-118.3,0-177.5c-1.4-0.6-2.7-1.2-4.1-1.8
	c-19.7,37.6-39.3,75.1-60.4,115.4c-21.2-40.3-40.9-77.7-60.5-115c-1.3,0.6-2.7,1.1-4,1.7c0,57.1-0.1,114.2,0.3,171.4
	c0,2.8,4.8,5.5,7.4,8.2c1.2-1,2.4-1.9,3.5-2.9C2998.4,597.8,2998.4,554.1,2998.4,510.5z M2438.9,464.4c0,43.8,0,87.2,0,130.6
	c-0.9,0.3-1.9,0.6-2.8,0.9c-29.5-42.5-59-85-90.4-130.3c0,61.5,0,119,0,176.3c10.5,4.1,12.3-0.7,12.3-9.4c-0.2-35.5-0.1-71,0-106.5
	c0-4.3,0.4-8.6,0.8-16.6c31.8,45,61.3,86.8,92.7,131.2c0-61.3,0-118.3,0-176.2C2447.3,464.4,2443.9,464.4,2438.9,464.4z
	 M2719.7,642.4c0-59.7,0-118.9,0-177.7c-9.4-3-11.4,0.9-11.3,8.6c0.3,20.5,0.1,41,0.1,61.5c-27.5,0-52.6,0-79.1,0
	c0-24.1,0-47.4,0-71.5c-4.8,0.6-8.2,1-12.4,1.5c0,57.2,0.1,113.5-0.1,169.7c0,10.2,5,9.6,13.4,8c0-31.3,0-61.9,0-92.3
	c26.7,0,51.8,0,78.2,0c0,28,0.1,55.1-0.1,82.2C2708.3,639.6,2708.6,645.7,2719.7,642.4z M3161.4,642.5c34.3,0,66.8,0,99,0
	c2.9-9.9-1.4-12-9.7-11.9c-25.6,0.3-51.3,0.1-77.4,0.1c0-28,0-54,0-81.6c23.9,0,47.2,0,69.9,0c3.4-9.8-0.4-11.9-8.2-11.8
	c-20.6,0.3-41.1,0.1-61.4,0.1c0-22.3,0-42.3,0-63.3c29.5,0,58,0,91.2,0c-4.8-5.4-7-10.2-9.3-10.2c-31.2-0.5-62.4-0.3-94.2-0.3
	C3161.4,524.1,3161.4,582.9,3161.4,642.5z M3396.8,498.8c10.3-5.1,10.4-5.2,5.5-13.3c-14.7-24.2-55.1-29.2-79.6-10.6
	c-19.8,15.1-27.9,51.9,2.2,69.6c7.4,4.4,15.5,7.8,23.4,11.4c10.4,4.8,21.4,8.3,31.2,14.1c10.5,6.2,18.3,14.9,16,29.2
	c-2.6,16-12.1,26.2-26.8,29.9c-18.3,4.6-36.1,2.3-48.2-14.5c-4.8-6.6-8.1-9.8-14.4-2.6c12.2,26.6,40.3,37.5,69.2,26.8
	c19.6-7.3,30.8-21.8,32.4-42.2c1.4-18.8-10.7-30.5-26.1-38.8c-6.4-3.5-13.5-5.8-20.1-8.8c-10-4.5-20.5-8.2-29.8-13.9
	c-20-12.5-20.5-37.2-1.6-51.6C3348.8,469.2,3382,470.4,3396.8,498.8z M1439,465.2c-8.6-3.6-12-0.7-14.7,7.2
	c-11.5,32.7-23.6,65.2-35.6,97.8c-5,13.5-10.3,26.9-16.6,43.4c-3.6-8.3-6-13-7.8-18c-14.9-40.7-29.9-81.5-44.6-122.3
	c-2.6-7.2-5.3-12.2-15-7.8c22.1,57.7,44,115,67.1,175.6C1395,580.2,1416.9,522.8,1439,465.2z M1747.4,471.6c-2.6-2.7-5-7.5-7.7-7.7
	c-21.9-1.7-43,0.7-61.8,13.6c-33.5,23-46.1,71.4-29.1,113.8c16.3,40.5,49.3,52.1,84.3,51.8c7.2-0.1,16.9-0.6,11.3-13
	c-59.3,1.6-91.8-25.7-92.1-76.8C1652,502.3,1684.1,474.6,1747.4,471.6z M2000.8,642.1c11.8,3.9,11.1-3,11.1-9.8
	c-0.1-47.5-0.1-95,0-142.5c0-4.8,0.4-9.7,0.7-15.2c15.5,0,29.3-0.1,43.1,0.1c8.1,0.1,11.2-2.5,6.5-11.1c-35.1,0-70.6-0.2-106,0.3
	c-3.1,0-6.2,4.2-9.4,6.4c0.7,1.5,1.5,2.9,2.2,4.4c11.9,0,23.9,0.8,35.7-0.2c12.7-1.1,16.5,3.1,16.3,16
	C2000.4,540.7,2000.8,590.9,2000.8,642.1z M2105.9,465.8c-1.4-1.1-2.7-2.2-4.1-3.3c-2.2,3.2-6.2,6.3-6.3,9.5
	c-0.4,54.3-0.2,108.7-0.4,163c0,8.9,3.6,9.9,10.7,6.7C2105.9,582.7,2105.9,524.2,2105.9,465.8z"/>
<path d="M2998.4,510.5c0,43.6,0,87.3,0,130.9c-1.2,1-2.4,1.9-3.5,2.9c-2.6-2.7-7.4-5.5-7.4-8.2c-0.4-57.1-0.3-114.2-0.3-171.4
	c1.3-0.6,2.7-1.1,4-1.7c19.6,37.3,39.3,74.7,60.5,115c21.1-40.3,40.8-77.9,60.4-115.4c1.4,0.6,2.7,1.2,4.1,1.8
	c0,59.2,0,118.3,0,177.5c-10.6,1.1-10.7,1.1-10.8-9.9c-0.1-36,0-72-0.1-108c0-4.9-0.5-9.8-4-15.5c-16.2,31-32.4,62.1-49.6,95.1
	c-17-32.4-33.2-63.3-49.4-94.2C3001,509.6,2999.7,510.1,2998.4,510.5z"/>
<path d="M2438.9,464.4c5,0,8.5,0,12.5,0c0,57.8,0,114.9,0,176.2c-31.4-44.4-60.9-86.2-92.7-131.2c-0.4,8-0.8,12.3-0.8,16.6
	c-0.1,35.5-0.2,71,0,106.5c0.1,8.7-1.8,13.6-12.3,9.4c0-57.3,0-114.8,0-176.3c31.4,45.3,60.9,87.8,90.4,130.3
	c0.9-0.3,1.9-0.6,2.8-0.9C2438.9,551.6,2438.9,508.2,2438.9,464.4z"/>
<path d="M2226.3,463.6c48.9,0,90.3,40.1,89.2,89.4c-1.2,52-36.7,89-89,89.6c-54.9,0.7-90.2-43.9-89.8-90.1
	C2137.1,503.3,2176.8,463.5,2226.3,463.6z M2225.4,630.1c43,0.2,77.5-33.9,77.6-76.7c0.1-42.3-33.6-76.9-75.6-77.6
	c-43.1-0.7-78.7,34.5-78.4,77.6C2149.2,595.8,2183.2,629.9,2225.4,630.1z"/>
<path d="M2942.7,553.6c0.6,43.6-33.2,89.2-89.4,88.9c-52.2-0.3-88.1-38.1-89.1-89.4c-0.9-49.9,39.9-89.6,90.3-89.5
	C2903.5,463.6,2942.7,503.6,2942.7,553.6z M2852.7,630c43,0.1,77.7-34,78-76.7c0.4-42.2-35-77.8-77.2-77.9
	c-41.8-0.1-76.7,34.6-77,76.4C2776.2,595,2810.2,629.9,2852.7,630z"/>
<path d="M2719.7,642.4c-11.1,3.4-11.4-2.8-11.3-10.1c0.2-27.1,0.1-54.2,0.1-82.2c-26.3,0-51.5,0-78.2,0c0,30.4,0,61,0,92.3
	c-8.3,1.6-13.4,2.2-13.4-8c0.3-56.2,0.1-112.4,0.1-169.7c4.1-0.5,7.5-0.9,12.4-1.5c0,24.1,0,47.4,0,71.5c26.5,0,51.6,0,79.1,0
	c0-20.5,0.2-41-0.1-61.5c-0.1-7.7,1.9-11.7,11.3-8.6C2719.7,523.5,2719.7,582.7,2719.7,642.4z"/>
<path d="M3161.4,642.5c0-59.6,0-118.5,0-178.9c31.7,0,63-0.2,94.2,0.3c2.3,0,4.5,4.8,9.3,10.2c-33.2,0-61.7,0-91.2,0
	c0,21,0,41,0,63.3c20.3,0,40.8,0.2,61.4-0.1c7.7-0.1,11.6,2,8.2,11.8c-22.8,0-46,0-69.9,0c0,27.5,0,53.6,0,81.6
	c26.1,0,51.7,0.2,77.4-0.1c8.3-0.1,12.6,2,9.7,11.9C3228.2,642.5,3195.7,642.5,3161.4,642.5z"/>
<path d="M1471,641.5c22.8-57.7,45.5-115.4,69.6-176.5c24,60.6,46.9,118.7,69.9,176.8c-1.3,1.1-2.5,2.3-3.8,3.4
	c-3.7-3.5-8.7-6.4-10.9-10.7c-4.9-9.8-9-20.1-12.1-30.5c-2.4-7.9-6-11-14.5-10.7c-19.3,0.7-38.7-0.3-58.1,0.6
	c-4.4,0.2-10.5,4.5-12.5,8.6c-5.3,10.6-8.2,22.3-13.3,33c-1.9,3.9-7.1,6.2-10.8,9.2C1473.3,643.7,1472.1,642.6,1471,641.5z
	 M1540.5,494c-11.9,31.3-22.3,58.5-32.9,86.1c22.7,0,43.5,0,65.8,0C1562.5,551.5,1552.2,524.7,1540.5,494z"/>
<path d="M1846.6,462.8c24,60.7,46.9,118.8,69.8,176.9c-1.1,1.1-2.3,2.3-3.4,3.4c-3.8-3.3-9.2-5.9-11.2-10.1
	c-6.2-13.2-7.5-32.5-17.5-38.9c-10.9-7-29.4-2.5-44.5-2.5c-32.2-0.2-31.8,0.1-44.4,31.2c-3.1,7.7-1.8,22.5-18.9,17.5
	C1799.7,581.6,1822.7,523.5,1846.6,462.8z M1879.9,578.6c-11.2-29.2-21.6-56.2-33.4-86.7c-11.8,31-22.2,58.2-33,86.7
	C1836.8,578.6,1857.3,578.6,1879.9,578.6z"/>
<path d="M3396.8,498.8c-14.9-28.4-48-29.6-66.7-15.3c-18.9,14.4-18.4,39.2,1.6,51.6c9.2,5.8,19.8,9.4,29.8,13.9
	c6.7,3,13.7,5.3,20.1,8.8c15.4,8.3,27.5,20,26.1,38.8c-1.6,20.3-12.8,34.9-32.4,42.2c-28.9,10.7-57-0.1-69.2-26.8
	c6.3-7.3,9.6-4,14.4,2.6c12.1,16.7,29.9,19.1,48.2,14.5c14.7-3.7,24.2-13.9,26.8-29.9c2.3-14.3-5.5-23-16-29.2
	c-9.7-5.8-20.8-9.4-31.2-14.1c-7.9-3.6-15.9-7-23.4-11.4c-30-17.7-22-54.6-2.2-69.6c24.5-18.6,64.9-13.6,79.6,10.6
	C3407.2,493.6,3407.1,493.7,3396.8,498.8z"/>
<path d="M1439,465.2c-22,57.6-44,115-67.2,175.8c-23.2-60.6-45.1-117.8-67.1-175.6c9.7-4.4,12.4,0.6,15,7.8
	c14.7,40.8,29.6,81.6,44.6,122.3c1.8,5,4.2,9.7,7.8,18c6.3-16.5,11.6-29.9,16.6-43.4c12-32.5,24.2-65,35.6-97.8
	C1427,464.5,1430.3,461.6,1439,465.2z"/>
<path d="M1747.4,471.6c-63.3,3-95.4,30.6-95.2,81.6c0.2,51.2,32.7,78.4,92.1,76.8c5.6,12.4-4.1,12.9-11.3,13
	c-35,0.3-68-11.3-84.3-51.8c-17-42.3-4.4-90.7,29.1-113.8c18.8-12.9,39.9-15.3,61.8-13.6C1742.4,464.1,1744.8,469,1747.4,471.6z"/>
<path d="M2000.8,642.1c0-51.2-0.4-101.4,0.3-151.6c0.2-12.9-3.6-17.1-16.3-16c-11.8,1-23.8,0.2-35.7,0.2c-0.7-1.5-1.5-2.9-2.2-4.4
	c3.1-2.2,6.2-6.4,9.4-6.4c35.4-0.5,70.9-0.3,106-0.3c4.7,8.7,1.5,11.3-6.5,11.1c-13.8-0.2-27.6-0.1-43.1-0.1
	c-0.3,5.5-0.7,10.4-0.7,15.2c-0.1,47.5-0.1,95,0,142.5C2012,639,2012.6,645.9,2000.8,642.1z"/>
<path d="M2105.9,465.8c0,58.4,0,116.9,0,175.9c-7.2,3.2-10.8,2.1-10.7-6.7c0.1-54.3,0-108.7,0.4-163c0-3.2,4.1-6.3,6.3-9.5
	C2103.1,463.6,2104.5,464.7,2105.9,465.8z"/>
</svg>
